<svg width="128" height="128" viewBox="0 0 128 128" fill="none" xmlns="http://www.w3.org/2000/svg">
<path d="M103.266 78.7812C103.266 81.4688 102.766 83.9844 101.766 86.3281C100.766 88.6406 99.3906 90.6719 97.6406 92.4219C95.9219 94.1406 93.8906 95.5 91.5469 96.5C89.2344 97.5 86.75 98 84.0938 98H25.6875V88.3906H84.0938C85.4375 88.3906 86.6875 88.1406 87.8438 87.6406C89 87.1406 90 86.4531 90.8438 85.5781C91.7188 84.7031 92.4062 83.6875 92.9062 82.5312C93.4062 81.3438 93.6562 80.0938 93.6562 78.7812C93.6562 77.4688 93.4062 76.2344 92.9062 75.0781C92.4062 73.9219 91.7188 72.9062 90.8438 72.0312C90 71.1562 89 70.4688 87.8438 69.9688C86.6875 69.4688 85.4375 69.2188 84.0938 69.2188H44.9062C42.2812 69.2188 39.7969 68.7188 37.4531 67.7188C35.1094 66.7188 33.0625 65.3594 31.3125 63.6406C29.5938 61.8906 28.2188 59.8438 27.1875 57.5C26.1875 55.1562 25.6875 52.6562 25.6875 50C25.6875 47.375 26.1875 44.8906 27.1875 42.5469C28.2188 40.2031 29.5938 38.1719 31.3125 36.4531C33.0625 34.7031 35.1094 33.3281 37.4531 32.3281C39.7969 31.2969 42.2812 30.7812 44.9062 30.7812H98.4844V40.3906H44.9062C43.5938 40.3906 42.3438 40.6406 41.1562 41.1406C40 41.6406 38.9844 42.3281 38.1094 43.2031C37.2344 44.0781 36.5469 45.1094 36.0469 46.2969C35.5469 47.4531 35.2969 48.6875 35.2969 50C35.2969 51.3125 35.5469 52.5625 36.0469 53.75C36.5469 54.9062 37.2344 55.9219 38.1094 56.7969C38.9844 57.6719 40 58.3594 41.1562 58.8594C42.3438 59.3594 43.5938 59.6094 44.9062 59.6094H84.0938C86.75 59.6094 89.2344 60.125 91.5469 61.1562C93.8906 62.1562 95.9219 63.5312 97.6406 65.2812C99.3906 67 100.766 69.0312 101.766 71.375C102.766 73.6875 103.266 76.1562 103.266 78.7812Z" fill="white"/>
</svg>
